<?xml version="1.0" standalone="no"?>
<!DOCTYPE svg PUBLIC "-//W3C//DTD SVG 20010904//EN"
 "http://www.w3.org/TR/2001/REC-SVG-20010904/DTD/svg10.dtd">
<svg version="1.0" xmlns="http://www.w3.org/2000/svg"
 width="1204.000000pt" height="1204.000000pt" viewBox="0 0 1204.000000 1204.000000"
 preserveAspectRatio="xMidYMid meet">
<metadata>
Created by potrace 1.14, written by Peter Selinger 2001-2017
</metadata>
<g transform="translate(0.000000,1204.000000) scale(0.100000,-0.100000)"
fill="#000000" stroke="none">
<path d="M5728 12035 c-1 -1 -57 -6 -123 -9 -66 -4 -129 -9 -140 -11 -11 -2
-49 -7 -85 -10 -36 -3 -96 -10 -135 -16 -38 -5 -85 -12 -104 -14 -281 -36
-691 -134 -1021 -245 -113 -37 -216 -72 -230 -78 -14 -6 -50 -20 -80 -32 -30
-12 -68 -28 -85 -35 -16 -7 -79 -35 -140 -60 -177 -76 -390 -186 -645 -332
-119 -68 -422 -270 -428 -285 -2 -4 -10 -8 -17 -8 -7 0 -15 -3 -17 -7 -1 -5
-48 -42 -103 -83 -106 -79 -317 -253 -399 -330 -179 -164 -462 -459 -566 -589
-19 -24 -40 -48 -45 -55 -6 -6 -40 -48 -75 -93 -357 -452 -661 -983 -876
-1530 -84 -212 -217 -636 -249 -792 -2 -9 -12 -56 -24 -106 -21 -96 -23 -104
-47 -235 -15 -84 -17 -99 -29 -183 -3 -23 -8 -53 -10 -67 -5 -27 -9 -62 -21
-175 -3 -38 -8 -81 -10 -95 -25 -203 -25 -923 0 -1080 2 -14 7 -61 11 -105 4
-44 8 -87 10 -95 1 -8 6 -37 9 -65 4 -27 10 -66 12 -85 3 -19 7 -46 10 -60 2
-14 9 -54 15 -90 8 -52 36 -190 74 -361 45 -206 190 -653 290 -894 94 -228
279 -601 374 -755 6 -8 31 -51 57 -95 26 -44 51 -82 54 -85 3 -3 23 -33 44
-68 21 -34 43 -68 50 -75 6 -6 23 -30 36 -52 33 -55 266 -362 325 -429 6 -6
35 -40 65 -76 130 -152 390 -418 540 -550 46 -41 93 -83 105 -93 11 -11 65
-55 120 -99 55 -44 108 -86 119 -95 93 -75 389 -283 403 -283 5 0 18 -8 29
-18 17 -15 220 -142 228 -142 2 0 43 -23 92 -51 132 -77 447 -229 629 -304
320 -133 822 -285 1120 -339 29 -6 52 -10 105 -21 14 -2 41 -7 60 -10 19 -3
46 -8 60 -10 14 -3 43 -7 65 -10 44 -5 121 -16 146 -20 9 -2 52 -6 95 -10 43
-4 90 -8 103 -10 163 -26 842 -27 1076 -1 22 3 72 7 110 11 39 3 79 7 90 9 11
2 43 7 70 10 71 10 106 16 135 21 14 3 45 7 70 10 25 3 52 8 60 10 8 2 31 7
50 10 275 46 863 215 1077 311 17 8 34 14 38 14 3 0 31 11 61 25 30 14 56 25
58 25 2 0 24 9 50 20 25 12 47 20 48 20 10 -4 516 259 603 313 11 6 78 48 150
93 167 104 438 293 515 360 8 8 58 48 110 91 281 230 532 480 815 813 199 235
393 520 631 930 26 46 199 394 227 459 50 114 137 331 161 405 13 39 31 89 39
111 35 92 142 461 153 530 3 17 10 48 16 70 5 22 12 49 14 60 3 19 6 31 20 95
11 52 63 377 68 425 3 28 7 68 10 90 37 265 43 898 12 1190 -2 22 -7 70 -11
107 -3 37 -7 75 -9 85 -2 10 -7 45 -11 78 -4 32 -8 67 -10 76 -2 9 -6 38 -10
65 -4 39 -69 365 -90 459 -5 21 -65 242 -90 330 -45 163 -234 664 -271 723 -8
12 -12 22 -9 22 6 0 -172 355 -221 440 -20 36 -47 83 -60 105 -13 22 -31 54
-40 70 -17 31 -64 104 -163 255 -52 81 -265 371 -293 401 -7 8 -42 50 -78 94
-121 149 -204 239 -385 420 -126 126 -184 180 -309 290 -216 191 -565 442
-861 621 -174 104 -573 304 -765 383 -152 63 -476 179 -575 206 -27 8 -75 21
-105 30 -69 20 -58 17 -230 59 -145 35 -365 79 -450 90 -25 3 -58 8 -75 11
-16 3 -43 7 -60 10 -16 3 -50 7 -75 10 -25 3 -65 7 -90 10 -25 3 -74 8 -110
11 -36 3 -83 8 -105 10 -47 5 -722 14 -727 9z"/>
</g>
</svg>
